<?xml version="1.0" encoding="UTF-8" standalone="no"?>
<svg width="400" height="300" viewBox="0 0 400 300" fill="none" xmlns="http://www.w3.org/2000/svg">
  <rect width="400" height="300" fill="#f3f4f6" />
  <path d="M200 150 C200 116.863 166.421 90 125 90 C83.5786 90 50 116.863 50 150 C50 183.137 83.5786 210 125 210 C139.208 210 152.424 206.867 163.342 201.666 L200 225 L200 150 Z" fill="#d1d5db" />
  <path d="M200 150 C200 116.863 233.579 90 275 90 C316.421 90 350 116.863 350 150 C350 183.137 316.421 210 275 210 C260.792 210 247.576 206.867 236.658 201.666 L200 225 L200 150 Z" fill="#d1d5db" />
  <rect x="190" y="50" width="20" height="100" fill="#9ca3af" />
  <rect x="80" y="140" width="240" height="20" fill="#9ca3af" />
  <circle cx="200" cy="150" r="15" fill="#6b7280" />
  <circle cx="80" cy="150" r="25" fill="#9ca3af" />
  <circle cx="320" cy="150" r="25" fill="#9ca3af" />
  <text x="200" y="250" font-family="Arial" font-size="16" text-anchor="middle" fill="#374151">Exercise Image Placeholder</text>
</svg>